<svg xmlns="http://www.w3.org/2000/svg" version="1.1" xmlns:xlink="http://www.w3.org/1999/xlink" xmlns:svgjs="http://svgjs.com/svgjs" width="1920" height="1080" preserveAspectRatio="none" viewBox="0 0 1920 1080">
    <g mask="url(&quot;#SvgjsMask1294&quot;)" fill="none">
        <rect width="1920" height="1080" x="0" y="0" fill="rgba(255, 255, 255, 1)"></rect>
        <path d="M0,920.355C170.324,894.419,223.9,667.045,367.744,572.22C508.949,479.135,744.045,525.278,824.762,376.656C904.419,229.986,786.874,53.14,735.99,-105.819C692.922,-240.36,650.401,-377.033,551.28,-477.687C455.608,-574.839,318.943,-605.028,192.979,-657.227C50.46,-716.286,-87.555,-845.73,-236.063,-803.957C-384.462,-762.214,-432.427,-578.218,-525.309,-455.183C-611.038,-341.623,-741.767,-250.391,-760.453,-109.337C-779.092,31.369,-674.704,152.353,-623.317,284.659C-568.176,426.633,-554.159,587.614,-447.526,696.364C-328.319,817.938,-168.326,945.986,0,920.355" fill="#f2f2f2"></path>
        <path d="M1920 1852.394C2074.692 1863.5230000000001 2229.635 1846.0990000000002 2370.136 1780.425 2524.3469999999998 1708.3429999999998 2712.513 1626.3319999999999 2755.824 1461.708 2799.811 1294.518 2636.962 1148.199 2579.355 985.199 2535.142 860.0989999999999 2521.818 730.5830000000001 2456.594 615.038 2378.247 476.246 2304.841 323.722 2163.926 249.26300000000003 2011.39 168.664 1815.756 120.154 1659.8609999999999 194.04700000000003 1504.848 267.52200000000005 1499.238 488.422 1386.5259999999998 617.742 1273.3110000000001 747.639 1065.5259999999998 787.677 1002.645 948.104 936.655 1116.463 950.112 1326.48 1049.52 1477.535 1146.667 1625.155 1347.341 1648.624 1509.649 1718.519 1644.527 1776.6019999999999 1773.526 1841.856 1920 1852.394" fill="#ffffff"></path>
    </g>
    <defs>
        <mask id="SvgjsMask1294">
            <rect width="1920" height="1080" fill="#ffffff"></rect>
        </mask>
    </defs>
</svg>