<svg xmlns="http://www.w3.org/2000/svg" viewBox="0 0 250 250"><g transform="matrix(5,0,0,5,0,0)"><defs><style>.d{stroke:#45413c;stroke-linecap:round;stroke-linejoin:round;stroke-width:1.25px}.b{fill:#f0f0f0}.c{fill:#ffffff}.d{fill:none}</style></defs><path d="m20.638 22.435 3.678 9.238a5.152 5.152 0 0 0-1.084.193c-3.364 1.008-5.067 5.242-3.8 9.456s5.142 7.171 8.378 5.807c2.741-1.155 4.623-3.321 4.539-6.39a15.228 15.228 0 0 0-1.324-5.28c-1.765-4.4-3.985-8.6-5.812-12.976q-.3-.708-.592-1.418zm7.932 16.148c.633 2.112-.221 4.232-1.906 4.737s-3.564-.8-4.2-2.908.22-4.232 1.905-4.737 3.568.797 4.201 2.908z" style="stroke:#45413c;stroke-linecap:round;stroke-linejoin:round;stroke-width:1.25px;fill:#ff6242"></path><path class="b" d="m4.468 13.775 22.577 9.153a1.072 1.072 0 0 1-.116 1.933l-.351.188c-10.371 5.59-21.944.726-23.69-9.957a1.226 1.226 0 0 1 1.58-1.317z"></path><path class="c" d="M27.045 22.928 4.468 13.775a1.226 1.226 0 0 0-1.58 1.317c.039.236.088.465.136.7h.013l22.576 9.152a.866.866 0 0 1 .435.375c.177-.089.354-.174.53-.269l.351-.188a1.072 1.072 0 0 0 .116-1.934z"></path><path class="d" d="m4.468 13.775 22.577 9.153a1.072 1.072 0 0 1-.116 1.933l-.351.188c-10.371 5.59-21.944.726-23.69-9.957h0a1.226 1.226 0 0 1 1.58-1.317z"></path><path d="M21.666 25.235c.473.2 0 .115.478.313 4.375 1.827 8.577 4.047 12.976 5.812a15.244 15.244 0 0 0 5.28 1.323c3.069.085 5.234-1.8 6.39-4.538 1.364-3.236-1.592-7.116-5.807-8.378s-8.448.441-9.456 3.805a5.069 5.069 0 0 0-.194 1.084l-8.3-3.4zm13.669-.522c.505-1.685 2.626-2.539 4.737-1.906s3.414 2.511 2.909 4.2-2.626 2.538-4.737 1.9-3.414-2.507-2.909-4.194z" style="fill:#ff6242"></path><path d="m24.063 23.485 7.226 2.961a.947.947 0 0 0 1.261-.635V25.8c1.008-3.363 5.242-5.067 9.456-3.8A9.558 9.558 0 0 1 47 25.437c-.549-2.439-2.943-4.75-6.015-5.67-4.215-1.263-8.448.441-9.456 3.805a5.069 5.069 0 0 0-.194 1.084l-8.3-3.4-1.371 3.979c.474.2 0 .115.478.313.352.147.7.3 1.053.452z" style="fill:#ff866e"></path><path class="d" d="M21.666 25.235c.473.2 0 .115.478.313 4.375 1.827 8.577 4.047 12.976 5.812a15.244 15.244 0 0 0 5.28 1.323c3.069.085 5.234-1.8 6.39-4.538 1.364-3.236-1.592-7.116-5.807-8.378s-8.448.441-9.456 3.805a5.069 5.069 0 0 0-.194 1.084l-8.3-3.4zm13.669-.522c.505-1.685 2.626-2.539 4.737-1.906s3.414 2.511 2.909 4.2-2.626 2.538-4.737 1.9-3.414-2.507-2.909-4.194z"></path><path class="b" d="m14.417 4.058 7.77 23.09a1.072 1.072 0 0 0 1.936 0l.21-.339C30.54 16.8 26.386 4.951 15.828 2.561a1.226 1.226 0 0 0-1.411 1.497z"></path><path class="c" d="m24.757 26.017-7.77-23.089c-.006-.019 0-.038-.009-.057a16.019 16.019 0 0 0-1.15-.31 1.226 1.226 0 0 0-1.411 1.5l7.77 23.09a1.072 1.072 0 0 0 1.936 0l.21-.339c.155-.251.3-.5.443-.758-.005-.015-.014-.023-.019-.037z"></path><path class="d" d="m14.417 4.058 7.77 23.09a1.072 1.072 0 0 0 1.936 0l.21-.339C30.54 16.8 26.386 4.951 15.828 2.561h0a1.226 1.226 0 0 0-1.411 1.497z"></path><circle cx="23.372" cy="22.561" r="1.16" style="fill:#656769"></circle></g></svg>