<svg xmlns="http://www.w3.org/2000/svg" viewBox="0 0 250 250"><g transform="matrix(5,0,0,5,0,0)"><defs><style>.a{fill:#f0f0f0}.b{fill:#ffaa54}.c{fill:none;stroke:#45413c;stroke-linecap:round;stroke-linejoin:round;stroke-width:1.25px}.h{fill:#45413c}</style></defs><path class="a" d="M34.906 39.619a3.757 3.757 0 0 0 .727 0 4.126 4.126 0 0 0 2.924-1.891 6.811 6.811 0 0 0 1.014-3.408 12.76 12.76 0 0 1 .131-1.825 2.344 2.344 0 0 1 .916-1.531 2.7 2.7 0 0 1 1.287-.365 4.6 4.6 0 0 1 1.8.166 4.09 4.09 0 0 1 2.027 1.588c2.769 3.97.642 9.631-3.669 11.429a6.309 6.309 0 0 1-6.187-.669 6.217 6.217 0 0 1-.318-.266"></path><path class="b" d="M45.73 32.353a4.1 4.1 0 0 0-2.03-1.588 4.6 4.6 0 0 0-1.8-.166 2.7 2.7 0 0 0-1.287.365 2.34 2.34 0 0 0-.916 1.531 12.76 12.76 0 0 0-.131 1.825 6.811 6.811 0 0 1-1.014 3.408c-.023.036-.055.064-.08.1l1.926.031a3.873 3.873 0 0 1 1.443.208 5.122 5.122 0 0 1 1.3.973 7.969 7.969 0 0 0 2.373 1.425 1.287 1.287 0 0 0 .257.07 7.471 7.471 0 0 0-.041-8.182z"></path><path class="c" d="M34.906 39.619a3.757 3.757 0 0 0 .727 0 4.126 4.126 0 0 0 2.924-1.891 6.811 6.811 0 0 0 1.014-3.408 12.76 12.76 0 0 1 .131-1.825 2.344 2.344 0 0 1 .916-1.531 2.7 2.7 0 0 1 1.287-.365 4.6 4.6 0 0 1 1.8.166 4.09 4.09 0 0 1 2.027 1.588c2.769 3.97.642 9.631-3.669 11.429a6.309 6.309 0 0 1-6.187-.669 6.217 6.217 0 0 1-.318-.266"></path><path d="M17.4 37.928c-1.019 3.76.579 8.273 1.552 9.793a.892.892 0 0 0 .758.4h1.578a.972.972 0 0 0 .868-.537l.609-1.218H25.4l.642 1.283a.853.853 0 0 0 .763.472h1.6a.815.815 0 0 0 .728-.451l.652-1.3h1.506a.4.4 0 0 1 .36.223l.574 1.147a.692.692 0 0 0 .622.383h2.157c1.346-2.876.361-8.744-1.092-10.588l-6.118-1.609z" style="stroke-linecap:round;stroke-linejoin:round;stroke-width:1.25px;stroke:#45413c;fill:#f0f0f0"></path><path class="c" d="M29.785 46.378A5.171 5.171 0 0 0 30.123 44"></path><path d="M34.685 35.634c-.24 0-18.938 1.01-18.938 1.01L15.075 44c11.447-.82 18.752-3.3 19.61-8.366z" style="fill:#ff6242;stroke-linecap:round;stroke-linejoin:round;stroke-width:1.25px;stroke:#45413c"></path><path class="a" d="M40.889 12.905a43.811 43.811 0 0 0 1.67-8.41 2.181 2.181 0 0 0-.15-1.331 1.878 1.878 0 0 0-1.687-.715 9.9 9.9 0 0 0-2.553.438 47.016 47.016 0 0 0-6.755 2.423A23.936 23.936 0 0 0 23.7 3.726a20.5 20.5 0 0 0-7.076.936 47.164 47.164 0 0 0-6.578-2.343 9.851 9.851 0 0 0-2.553-.437A1.878 1.878 0 0 0 5.8 2.6a2.19 2.19 0 0 0-.149 1.332 44.868 44.868 0 0 0 1.4 7.532 21.243 21.243 0 0 0-3.786 15.87C4.193 34.02 13.5 40.387 23.079 40.387S42.232 34.67 43.5 28.047a20.375 20.375 0 0 0-2.611-15.142z"></path><path class="b" d="M7.049 11.461a20.835 20.835 0 0 0-4 13.467A5.976 5.976 0 0 0 7.2 23.552c1.414-1.076 2.551-2.486 3.99-3.528a11.2 11.2 0 0 1 12.615.128c1.054.731 1.985 1.625 3.012 2.393a15.527 15.527 0 0 0 17.1 1.013 19.44 19.44 0 0 0-3.033-10.653A43.733 43.733 0 0 0 42.558 4.5a2.18 2.18 0 0 0-.149-1.331 1.878 1.878 0 0 0-1.687-.715 9.853 9.853 0 0 0-2.553.438 47.016 47.016 0 0 0-6.755 2.418A23.936 23.936 0 0 0 23.7 3.726a20.491 20.491 0 0 0-7.076.936 47.256 47.256 0 0 0-6.578-2.343 9.9 9.9 0 0 0-2.553-.438A1.882 1.882 0 0 0 5.8 2.6a2.194 2.194 0 0 0-.149 1.333 44.768 44.768 0 0 0 1.398 7.528z"></path><path class="c" d="M40.889 12.905a43.811 43.811 0 0 0 1.67-8.41 2.181 2.181 0 0 0-.15-1.331 1.878 1.878 0 0 0-1.687-.715 9.9 9.9 0 0 0-2.553.438 47.016 47.016 0 0 0-6.755 2.423A23.936 23.936 0 0 0 23.7 3.726a20.5 20.5 0 0 0-7.076.936 47.164 47.164 0 0 0-6.578-2.343 9.851 9.851 0 0 0-2.553-.437A1.878 1.878 0 0 0 5.8 2.6a2.19 2.19 0 0 0-.149 1.332 44.868 44.868 0 0 0 1.4 7.532 21.243 21.243 0 0 0-3.786 15.87C4.193 34.02 13.5 40.387 23.079 40.387S42.232 34.67 43.5 28.047a20.375 20.375 0 0 0-2.611-15.142z"></path><path d="M9.281 11.1a23.064 23.064 0 0 1-1.229-5.581 1.2 1.2 0 0 1 .082-.732 1.031 1.031 0 0 1 .926-.392 5.408 5.408 0 0 1 1.4.24 25.935 25.935 0 0 1 4.505 1.7A13.938 13.938 0 0 0 9.281 11.1zm29.409.52a23.064 23.064 0 0 0 1.229-5.582 1.194 1.194 0 0 0-.082-.731 1.033 1.033 0 0 0-.927-.393 5.465 5.465 0 0 0-1.4.24A25.956 25.956 0 0 0 33 6.85a13.938 13.938 0 0 1 5.69 4.77z" style="fill:#ffe8d1;stroke:#eb6d00;stroke-linecap:round;stroke-linejoin:round;stroke-width:1.25px"></path><path class="c" d="M17.8 19.708a5.939 5.939 0 0 0-.169 2.338 2.165 2.165 0 0 0 1.41 1.734"></path><ellipse cx="17.981" cy="18.586" rx="2.234" ry="1.506" style="fill:#45413c;stroke-linecap:round;stroke-linejoin:round;stroke-width:1.25px;stroke:#45413c"></ellipse><circle class="h" cx="9.619" cy="17.723" r="1.154"></circle><circle class="h" cx="27.096" cy="18.877" r="1.154"></circle></g></svg>